<?xml version="1.0" standalone="no"?>
<!DOCTYPE svg PUBLIC "-//W3C//DTD SVG 20010904//EN"
 "http://www.w3.org/TR/2001/REC-SVG-20010904/DTD/svg10.dtd">
<svg version="1.0" xmlns="http://www.w3.org/2000/svg"
 width="260.000000pt" height="260.000000pt" viewBox="0 0 260.000000 260.000000"
 preserveAspectRatio="xMidYMid meet">
<metadata>
Created by potrace 1.11, written by Peter Selinger 2001-2013
</metadata>
<g transform="translate(0.000000,260.000000) scale(0.100000,-0.100000)"
fill="#000000" stroke="none">
<path d="M2357 2331 c-9 -11 -9 -13 0 -8 6 4 13 4 15 -1 1 -4 11 0 20 9 16 17
15 18 -3 16 -11 -1 -26 -8 -32 -16z"/>
<path d="M2386 2314 c-4 -10 -2 -13 6 -8 7 4 8 3 4 -5 -4 -6 -13 -8 -19 -4 -7
4 -18 8 -25 9 -10 2 -11 -1 -1 -12 7 -8 8 -14 3 -12 -14 4 -54 -25 -54 -39 0
-7 -5 -13 -11 -13 -5 0 -8 4 -5 8 3 5 -1 9 -9 9 -8 0 -13 -3 -10 -5 3 -3 0
-11 -6 -19 -9 -10 -8 -17 2 -30 13 -15 12 -15 -9 -4 -18 9 -22 9 -20 -1 2 -8
-5 -12 -16 -10 -15 3 -16 1 -5 -11 12 -12 15 -12 24 0 9 12 11 11 11 -6 0 -23
-16 -27 -33 -10 -12 12 -25 -3 -30 -33 -2 -13 2 -16 15 -11 15 5 15 4 -1 -9
-10 -8 -32 -13 -48 -12 -17 1 -26 -2 -23 -8 3 -5 12 -7 20 -4 7 3 16 1 19 -5
4 -5 1 -8 -7 -7 -7 2 -12 -3 -10 -11 3 -12 1 -12 -13 -1 -13 11 -16 11 -13 0
2 -7 -3 -15 -11 -18 -9 -3 -11 0 -6 8 5 9 4 11 -4 6 -6 -4 -9 -12 -6 -17 4 -5
0 -9 -7 -9 -9 0 -10 -3 -2 -8 7 -4 8 -15 3 -27 -4 -11 -8 -15 -8 -8 -1 18 -36
8 -36 -11 0 -9 -6 -20 -13 -25 -8 -5 -14 -12 -14 -16 0 -4 6 -12 14 -16 9 -6
9 -9 1 -9 -7 0 -17 8 -23 18 -9 14 -10 12 -5 -10 3 -17 1 -28 -5 -28 -6 0 -8
-4 -5 -10 3 -6 -1 -7 -10 -4 -8 4 -21 1 -29 -5 -7 -6 -15 -8 -18 -6 -3 3 -4
-6 -3 -20 2 -14 -1 -23 -6 -19 -5 3 -7 9 -4 13 2 5 -11 6 -30 4 -21 -2 -35 1
-35 7 0 6 5 8 12 4 7 -5 8 -3 3 6 -6 10 -4 12 9 7 11 -4 15 -3 11 4 -4 6 -13
8 -21 5 -8 -3 -14 0 -14 7 0 8 -3 8 -9 -2 -7 -11 -11 -10 -21 5 -9 15 -10 16
-6 2 3 -12 1 -15 -9 -11 -8 3 -13 9 -10 13 3 5 1 11 -4 14 -5 4 -13 1 -17 -5
-5 -8 -3 -9 6 -4 9 5 11 4 6 -3 -11 -18 -23 -14 -29 8 -3 11 -1 20 4 20 5 0 9
5 9 11 0 8 -5 8 -15 -1 -10 -9 -15 -9 -15 -1 0 6 -5 11 -10 11 -6 0 -3 -12 7
-27 14 -23 15 -26 2 -16 -9 7 -20 9 -24 5 -5 -4 -5 -2 -2 5 4 6 4 18 1 27 -6
15 -8 15 -21 -1 -8 -10 -12 -12 -8 -5 4 8 -2 12 -19 12 -14 0 -26 5 -26 11 0
8 -5 7 -15 -1 -9 -7 -18 -10 -22 -6 -3 3 0 6 7 6 10 0 11 3 3 11 -6 6 -9 18
-6 26 5 13 2 13 -15 4 -12 -7 -22 -8 -22 -3 0 5 -11 8 -24 7 -18 -2 -23 1 -19
12 4 10 8 11 13 3 5 -8 9 -7 13 3 6 15 -15 18 -29 4 -4 -4 -12 -7 -18 -7 -6 0
-4 4 4 10 8 5 12 12 9 15 -12 11 -53 14 -64 5 -7 -6 -11 -3 -12 11 -1 12 2 17
10 12 7 -3 3 3 -7 15 -19 22 -32 30 -22 13 3 -5 -3 -11 -13 -14 -15 -4 -18 -1
-13 12 5 14 4 14 -13 1 -10 -8 -16 -10 -12 -3 4 6 3 14 -3 18 -5 3 -10 0 -10
-7 0 -8 -5 -6 -11 5 -5 9 -7 22 -4 27 3 6 2 10 -4 10 -5 0 -13 -9 -16 -21 -8
-25 -30 -19 -31 9 -2 36 -4 38 -15 22 -8 -11 -12 -12 -15 -3 -4 8 -13 9 -28 4
-23 -9 -66 12 -52 26 4 4 11 1 16 -7 6 -8 10 -10 10 -4 0 7 -11 19 -25 28 -23
15 -29 14 -26 -6 1 -8 -21 -12 -49 -9 -9 1 -6 -6 10 -20 l25 -21 -35 20 c-19
11 -39 21 -45 22 -24 4 -11 6 26 5 43 -2 61 9 29 18 -11 3 -20 1 -20 -4 0 -5
-5 -9 -11 -9 -5 0 -7 6 -3 13 6 9 5 9 -7 0 -12 -10 -18 -10 -28 0 -10 9 -12 9
-9 -3 2 -11 -4 -14 -22 -13 -22 2 -23 1 -7 -8 26 -15 12 -27 -28 -24 -19 1
-32 -2 -29 -7 4 -5 -2 -9 -12 -8 -32 4 -44 1 -44 -11 0 -5 4 -8 9 -4 19 11 18
-11 -2 -30 -11 -11 -17 -15 -14 -9 4 7 0 15 -9 18 -8 3 -12 2 -9 -3 3 -5 1
-12 -5 -16 -6 -4 -8 -10 -5 -15 7 -12 -5 -41 -15 -35 -5 3 -12 0 -16 -6 -4 -7
-3 -9 3 -6 6 4 13 -1 15 -11 3 -11 0 -19 -8 -19 -7 0 -10 5 -7 11 4 6 -1 5
-10 -3 -18 -15 -23 -26 -7 -16 6 3 10 1 10 -5 0 -6 5 -8 12 -4 7 4 8 3 4 -5
-4 -6 -12 -9 -17 -6 -5 4 -9 1 -9 -5 0 -6 -4 -9 -10 -5 -10 6 -40 -34 -44 -58
-1 -8 -8 -22 -15 -31 -7 -8 -10 -20 -6 -26 3 -5 -1 -13 -9 -16 -9 -3 -13 -10
-10 -15 3 -5 0 -9 -6 -9 -6 0 -8 -5 -5 -10 4 -6 1 -18 -6 -26 -10 -13 -10 -17
0 -23 16 -11 -15 -24 -32 -14 -7 3 -9 3 -5 -2 4 -4 0 -14 -10 -22 -13 -10 -13
-12 -2 -8 11 4 16 -1 17 -17 0 -13 -1 -17 -4 -10 -9 22 -20 13 -17 -15 3 -33
-12 -63 -31 -63 -8 0 -15 -9 -15 -21 0 -13 -4 -18 -12 -13 -7 5 -8 3 -2 -7 18
-29 13 -41 -9 -22 -12 10 -17 11 -10 3 8 -11 8 -18 -2 -27 -7 -6 -16 -10 -19
-7 -3 2 -1 -2 4 -8 9 -10 13 -10 20 2 5 8 12 11 16 8 3 -4 -10 -17 -30 -29
-39 -23 -50 -37 -13 -18 17 9 20 9 10 -1 -6 -7 -9 -19 -6 -26 5 -14 -13 -20
-19 -6 -1 4 -11 0 -20 -9 -14 -15 -14 -18 -2 -23 10 -4 12 -2 8 6 -5 7 -3 8 6
3 9 -5 11 -4 6 3 -5 8 -1 10 10 5 11 -4 13 -8 6 -11 -7 -2 -9 -9 -6 -14 5 -7
2 -8 -6 -3 -10 6 -12 3 -7 -11 7 -18 6 -18 -7 -1 -16 21 -30 22 -22 2 3 -8 0
-15 -5 -15 -7 0 -5 -10 5 -25 13 -19 13 -23 2 -19 -8 3 -17 0 -22 -7 -4 -7 -3
-10 3 -6 5 3 10 0 10 -9 0 -9 -7 -12 -19 -8 -10 3 -18 1 -18 -5 0 -6 3 -10 8
-10 28 5 35 -2 16 -16 -19 -15 -19 -15 1 -8 18 6 19 5 5 -12 -9 -11 -10 -16
-3 -11 8 4 13 1 13 -9 0 -9 -4 -14 -9 -11 -5 3 -15 -2 -22 -12 -12 -15 -12
-16 1 -5 10 8 21 9 30 3 10 -6 11 -10 3 -10 -9 0 -10 -7 -3 -24 6 -17 5 -26
-3 -30 -7 -4 -2 -4 10 -2 15 3 20 0 16 -10 -3 -8 1 -14 8 -14 9 0 7 -4 -4 -11
-10 -6 -21 -8 -24 -5 -4 3 -1 6 6 6 7 0 9 5 6 10 -3 5 -11 10 -16 10 -6 0 -7
-4 -4 -10 3 -5 0 -10 -7 -10 -7 -1 -1 -8 15 -16 15 -8 27 -16 27 -18 0 -7 -24
-1 -39 8 -10 6 -12 5 -7 -2 4 -7 3 -12 -3 -12 -5 0 -12 6 -14 13 -4 9 -6 9 -6
0 -1 -7 -6 -13 -12 -13 -5 0 -7 5 -4 10 8 14 -8 13 -22 -1 -17 -17 -11 14 7
37 14 18 14 18 -4 4 -15 -11 -20 -12 -23 -2 -3 6 -10 12 -18 12 -8 0 -11 11
-9 33 1 17 0 26 -3 20 -8 -21 -36 -16 -31 5 3 11 -1 30 -8 43 -7 13 -13 18
-14 12 0 -7 -12 -13 -26 -13 -17 0 -23 4 -18 13 4 6 -2 4 -14 -6 -11 -11 -18
-25 -15 -33 3 -8 0 -14 -7 -14 -6 0 -8 5 -5 10 3 6 1 10 -4 10 -6 0 -11 5 -11
11 0 5 4 8 8 5 4 -2 14 4 21 16 7 11 8 17 3 14 -13 -8 -22 17 -17 44 2 11 0
18 -6 15 -5 -4 -7 -11 -4 -16 6 -9 -7 -13 -32 -10 -6 1 -10 -6 -8 -16 1 -10
-2 -23 -7 -30 -7 -9 -4 -11 11 -8 14 2 18 -1 15 -10 -3 -8 6 -26 20 -40 14
-14 21 -25 15 -25 -6 0 -8 -4 -4 -9 3 -5 0 -13 -6 -17 -8 -5 -9 -3 -4 6 6 9 4
11 -4 6 -9 -6 -9 -12 3 -25 13 -14 13 -20 3 -30 -9 -10 -9 -12 3 -9 10 2 14
-4 12 -17 -2 -16 -1 -17 7 -6 8 13 12 13 27 0 16 -13 16 -12 5 11 -11 23 -11
24 3 6 9 -10 13 -23 9 -29 -3 -5 1 -13 8 -18 22 -14 33 -10 19 6 -8 9 -8 15
-2 15 6 0 14 -9 17 -20 4 -11 10 -18 15 -15 5 3 11 2 14 -3 6 -10 48 -8 67 3
11 7 12 6 2 -7 -7 -8 -11 -18 -8 -22 3 -3 0 -2 -6 3 -6 5 -20 6 -30 4 -19 -5
-19 -6 3 -18 19 -10 26 -9 42 4 18 15 19 15 13 -1 -7 -19 19 -33 29 -16 5 7 2
8 -6 3 -9 -6 -11 -4 -5 5 6 10 10 10 20 -3 10 -14 12 -14 23 1 7 9 10 12 7 5
-3 -6 4 -14 15 -18 11 -3 19 -11 17 -17 -1 -6 5 -13 13 -15 13 -4 13 -3 0 6
-8 6 -11 11 -6 11 5 0 4 6 -2 12 -8 10 0 13 38 13 26 0 46 -3 43 -7 -2 -5 1
-8 6 -8 6 0 11 4 11 8 0 11 67 9 77 -2 5 -5 2 -6 -7 -1 -13 7 -13 6 0 -6 8 -8
20 -20 26 -27 9 -10 13 -9 18 3 4 11 2 14 -6 9 -7 -5 -8 -3 -3 6 5 9 4 11 -3
6 -7 -4 -12 0 -12 10 0 16 1 16 20 -1 10 -9 19 -20 18 -24 -2 -21 4 -30 19
-24 12 5 14 3 8 -7 -5 -8 -4 -11 3 -6 6 4 8 14 5 23 -6 15 -5 16 9 3 9 -8 13
-19 10 -24 -3 -5 1 -5 9 0 28 17 41 13 20 -7 -28 -26 -27 -28 9 -24 19 3 30 0
30 -8 0 -7 4 -6 10 3 5 8 10 10 10 4 0 -6 11 -10 25 -9 14 2 27 -1 31 -6 3 -5
9 -7 14 -4 5 3 11 2 14 -3 8 -13 -28 -11 -36 2 -5 7 -8 6 -8 -4 0 -13 -1 -13
-10 0 -7 12 -9 10 -7 -8 1 -23 17 -31 17 -9 0 7 7 4 15 -7 8 -11 15 -15 15 -8
0 6 7 9 15 6 8 -4 13 -9 10 -14 -5 -8 38 -5 52 3 5 3 15 2 23 -4 10 -6 11 -9
3 -9 -7 0 -13 -9 -13 -20 0 -17 4 -18 25 -10 20 8 27 6 32 -6 5 -13 7 -13 14
-2 7 10 9 9 9 -4 0 -10 5 -18 11 -18 5 0 8 4 4 9 -3 5 0 13 6 17 8 4 9 3 5 -4
-4 -7 -2 -12 5 -12 7 0 4 -7 -7 -15 -10 -8 -14 -15 -9 -14 37 5 63 -3 73 -24
6 -12 11 -16 11 -9 1 7 5 10 11 7 6 -4 7 1 4 12 -5 15 -4 16 5 3 6 -8 8 -23 5
-32 -3 -10 0 -18 6 -18 6 0 8 4 5 10 -3 5 1 10 10 10 10 0 13 -5 9 -12 -5 -8
-2 -9 9 -5 11 4 17 1 17 -8 0 -7 4 -16 9 -19 5 -4 7 4 4 16 -4 20 -3 21 7 6 6
-10 16 -18 23 -18 7 0 6 4 -3 10 -10 7 -11 10 -2 10 19 0 27 -31 11 -41 -10
-6 -10 -9 -1 -9 18 0 27 4 25 12 -2 4 4 5 12 2 8 -4 15 -11 15 -18 0 -6 5 -4
10 4 8 13 10 12 10 -3 0 -17 1 -17 16 -3 19 19 31 21 16 3 -8 -9 -8 -17 0 -27
8 -12 9 -11 4 4 -5 13 -2 17 9 13 8 -4 17 -2 20 3 4 6 13 7 23 1 9 -4 25 -7
34 -6 11 2 15 -2 11 -12 -5 -12 -7 -12 -14 -1 -8 12 -13 4 -10 -15 1 -5 -3 -6
-9 -2 -6 3 -7 11 -4 17 4 7 2 8 -4 4 -7 -4 -12 -2 -12 5 0 8 -4 8 -15 -1 -17
-14 -20 -30 -4 -30 5 0 7 5 3 11 -4 7 -1 10 7 7 8 -3 13 -10 12 -16 -3 -13 34
-7 53 9 9 8 14 8 14 1 0 -6 -8 -16 -17 -21 -10 -6 -13 -11 -8 -11 6 0 17 6 23
12 10 10 17 10 33 0 12 -8 18 -9 14 -3 -3 6 -1 11 4 11 18 0 26 -5 23 -13 -5
-17 18 5 28 26 11 21 10 21 -4 3 -14 -18 -15 -18 -13 2 0 12 3 19 5 17 3 -2
13 0 24 6 18 9 18 8 8 -10 -6 -12 -8 -21 -4 -21 3 0 0 -8 -7 -18 -13 -16 -13
-16 7 1 11 9 25 14 29 10 5 -5 4 -1 -3 9 -15 19 -6 27 33 30 20 2 25 7 21 21
-3 14 -1 16 8 8 7 -6 17 -7 21 -3 5 4 5 -1 2 -11 -4 -11 -3 -16 3 -12 6 4 9
14 8 23 -2 9 2 16 8 15 11 -2 13 5 17 51 1 13 4 24 7 24 3 0 16 0 30 2 23 1
23 2 5 10 -19 8 -19 9 -1 9 16 1 17 3 5 18 -8 9 -9 14 -3 10 7 -4 17 0 24 8
11 13 10 14 -6 8 -17 -6 -17 -5 -5 10 11 13 11 17 1 17 -8 0 -10 3 -7 7 4 3
17 -2 29 -13 12 -10 18 -14 15 -7 -10 16 3 44 16 36 6 -3 7 -1 3 6 -4 6 -13 8
-19 4 -7 -3 -3 4 8 17 11 13 15 20 8 17 -6 -4 -15 -3 -18 3 -4 6 -3 10 2 9 19
-3 23 2 14 20 -9 16 -7 18 19 15 27 -3 29 -2 20 21 -6 16 -6 27 2 31 7 5 8 3
3 -6 -5 -9 -4 -11 4 -6 9 6 9 11 0 22 -8 10 -8 14 -1 14 6 0 9 7 6 15 -6 14 5
19 33 16 6 -1 15 4 19 10 4 7 3 9 -3 6 -6 -4 -14 0 -17 9 -3 8 -2 12 4 9 6 -3
10 4 10 17 0 14 3 18 8 11 5 -8 11 -3 19 13 8 18 8 22 0 17 -22 -14 -39 -13
-27 2 6 7 21 12 34 11 13 -2 23 3 23 10 0 7 -5 10 -11 7 -6 -3 -5 0 2 8 6 7
12 25 12 40 0 15 5 31 11 35 8 4 9 -1 5 -17 -5 -17 -4 -20 3 -9 5 8 8 17 8 20
-1 3 6 18 16 34 14 21 16 30 6 42 -6 8 -10 14 -8 15 2 0 14 2 26 3 13 2 26 6
30 11 5 4 0 5 -9 2 -10 -3 -20 -2 -23 4 -4 5 -3 9 2 8 18 -3 36 1 30 8 -4 3 1
12 11 19 15 12 15 13 -4 8 -12 -3 -25 0 -29 7 -5 7 -4 10 3 6 14 -9 43 3 36
14 -3 5 -10 6 -16 3 -7 -4 -8 -2 -4 5 6 9 14 8 32 -4 13 -8 24 -12 24 -7 0 5
-11 15 -25 22 -13 7 -22 17 -19 22 4 6 11 5 17 -1 19 -19 27 -12 22 20 -3 18
-2 28 4 25 5 -3 8 2 6 11 -2 10 -4 18 -5 18 -1 0 -3 10 -6 23 -3 17 -1 21 8
16 9 -5 9 -2 -1 9 -9 12 -10 17 -2 17 7 0 0 11 -15 23 -20 17 -23 24 -11 24 9
0 15 -3 14 -6 -2 -6 7 -11 18 -11 3 0 1 10 -6 21 -8 15 -8 19 0 15 7 -5 11 5
11 27 0 23 6 37 16 41 13 5 14 4 6 -7 -9 -10 -8 -14 3 -14 8 0 12 4 9 9 -3 4
1 8 8 8 8 0 9 3 3 8 -14 10 -13 44 2 49 6 2 14 -1 18 -7 5 -8 11 -7 23 2 12
10 16 11 20 0 2 -8 10 -5 21 10 16 20 18 45 16 213 -2 186 -9 241 -26 214 -4
-7 -4 -18 0 -24 9 -12 8 -91 -2 -101 -4 -4 -10 -4 -14 0 -4 4 -3 10 2 14 6 4
11 16 13 27 3 20 2 20 -13 1 -8 -11 -15 -15 -15 -10 0 6 3 14 7 18 12 12 12
36 0 36 -8 0 -8 3 -2 8 16 11 19 45 3 37 -10 -6 -10 -5 -1 5 9 9 9 19 2 33 -8
14 -8 18 0 13 15 -10 14 7 -1 22 -9 9 -9 12 0 12 6 0 16 -8 21 -17 6 -10 11
-13 11 -6 0 6 -4 14 -9 18 -6 3 -8 14 -6 25 2 12 0 18 -6 15 -5 -4 -7 -10 -5
-14 3 -4 -1 -8 -9 -8 -10 0 -12 4 -5 12 10 12 10 55 -1 55 -4 0 -10 -7 -13
-16z m-43 -59 c-3 -9 -8 -14 -10 -11 -3 3 -2 9 2 15 9 16 15 13 8 -4z m-59
-46 c-3 -5 -10 -7 -15 -3 -5 3 -7 10 -3 15 3 5 10 7 15 3 5 -3 7 -10 3 -15z
m-1104 -50 c-12 -22 -16 -23 -26 -7 -4 7 -3 8 4 4 11 -7 17 6 13 27 -1 5 3 6
9 2 7 -4 7 -12 0 -26z m-116 -4 c3 -8 1 -15 -4 -15 -6 0 -10 7 -10 15 0 8 2
15 4 15 2 0 6 -7 10 -15z m1143 -20 c0 -8 -4 -12 -9 -9 -5 3 -6 10 -3 15 9 13
12 11 12 -6z m-766 -78 c-6 -8 -8 -17 -4 -21 4 -4 0 -4 -10 0 -17 6 -17 7 0
20 23 17 28 18 14 1z m46 -42 c0 -8 -4 -12 -9 -9 -5 3 -6 10 -3 15 9 13 12 11
12 -6z m958 7 c-13 -9 -18 -32 -7 -32 16 0 10 -37 -8 -48 -15 -9 -18 -8 -15 6
1 9 8 16 13 15 6 -2 9 4 6 12 -4 8 -11 12 -18 8 -6 -4 -5 1 3 10 11 14 11 17
0 17 -11 0 -11 2 1 10 18 12 40 14 25 2z m-377 -67 c-3 -3 -9 2 -12 12 -6 14
-5 15 5 6 7 -7 10 -15 7 -18z m-1241 -41 c-9 -9 -28 6 -21 18 4 6 10 6 17 -1
6 -6 8 -13 4 -17z m1617 1 c-4 -8 -8 -15 -10 -15 -2 0 -4 7 -4 15 0 8 4 15 10
15 5 0 7 -7 4 -15z m-1628 -27 c1 -10 -4 -15 -15 -14 -9 2 -15 6 -13 9 1 4 2
12 2 18 0 17 23 5 26 -13z m1634 -2 c0 -3 -4 -8 -10 -11 -5 -3 -10 -1 -10 4 0
6 5 11 10 11 6 0 10 -2 10 -4z m-27 -41 c-7 -21 -12 -19 -10 4 0 11 5 18 9 15
4 -3 5 -11 1 -19z m-1646 -7 c0 -13 -6 -26 -12 -30 -7 -6 -6 -11 2 -16 9 -6 7
-11 -7 -20 -16 -10 -18 -9 -15 9 2 12 9 27 15 33 5 7 7 16 4 19 -6 5 3 27 11
27 2 0 3 -10 2 -22z m1077 9 c-3 -8 -12 -14 -21 -14 -13 0 -13 2 3 14 10 7 19
13 21 13 1 0 0 -6 -3 -13z m122 -16 c-4 -6 -13 -11 -19 -10 -9 0 -9 2 1 6 6 2
12 9 12 14 0 6 -5 7 -12 3 -7 -5 -8 -3 -3 5 5 9 11 9 17 3 6 -6 7 -15 4 -21z
m-71 -11 c3 -5 1 -10 -4 -10 -6 0 -11 5 -11 10 0 6 2 10 4 10 3 0 8 -4 11 -10z
m545 0 c0 -5 -4 -10 -10 -10 -5 0 -10 5 -10 10 0 6 5 10 10 10 6 0 10 -4 10
-10z m-67 -67 c-3 -7 -6 -13 -8 -13 -2 0 -5 6 -8 13 -3 8 1 14 8 14 7 0 11 -6
8 -14z m67 7 c0 -4 -8 -14 -17 -21 -11 -10 -14 -10 -9 -1 10 17 -4 15 -26 -5
-18 -16 -18 -16 -12 0 3 9 10 17 16 17 5 0 7 4 4 9 -3 5 6 9 19 9 14 0 25 -4
25 -8z m-1738 -77 c-5 -24 -6 -25 -12 -8 -6 16 2 33 16 35 1 0 -1 -12 -4 -27z
m1573 -169 c-2 -19 1 -37 7 -40 5 -4 5 -11 -1 -18 -6 -7 -9 -22 -6 -34 3 -19
2 -20 -16 -9 -10 6 -15 13 -9 15 5 2 10 10 10 18 0 9 -5 12 -12 8 -10 -6 -10
-4 0 7 6 7 12 17 12 22 0 4 -6 5 -12 1 -10 -6 -10 -4 0 7 6 7 12 17 12 22 0 4
-6 5 -12 1 -10 -6 -10 -4 0 7 15 16 16 33 0 23 -7 -4 -8 -3 -4 4 14 22 33 1
31 -34z m-2050 -294 c-3 -4 1 -10 7 -13 7 -2 1 -4 -14 -3 -22 1 -24 4 -17 19
6 10 14 15 20 12 5 -4 7 -10 4 -15z m55 -51 c0 -6 -4 -7 -10 -4 -5 3 -10 11
-10 16 0 6 5 7 10 4 6 -3 10 -11 10 -16z m45 11 c-3 -5 -1 -10 6 -10 8 0 9 -3
0 -13 -6 -8 -7 -17 -3 -22 4 -4 -3 -1 -15 6 -28 17 -29 25 -5 38 22 13 25 13
17 1z m-45 -40 c0 -5 -2 -10 -4 -10 -3 0 -8 5 -11 10 -3 6 -1 10 4 10 6 0 11
-4 11 -10z m-20 -81 c0 -5 -5 -9 -12 -9 -6 0 -8 3 -5 7 4 3 1 13 -6 22 -11 14
-10 14 6 2 9 -7 17 -17 17 -22z m1060 -403 c0 -3 -4 -8 -10 -11 -5 -3 -10 -1
-10 4 0 6 5 11 10 11 6 0 10 -2 10 -4z m530 -51 c-14 -17 -30 -20 -30 -4 0 5
4 8 9 4 5 -3 12 -1 16 5 3 5 9 10 12 10 3 0 0 -7 -7 -15z m-212 -72 c-6 -7
-12 -13 -13 -13 -2 0 -5 6 -8 13 -3 7 3 13 14 13 13 0 15 -3 7 -13z m42 9 c0
-4 -9 -13 -20 -20 -19 -12 -20 -11 -8 8 13 20 28 27 28 12z"/>
<path d="M315 1160 c3 -5 8 -10 11 -10 2 0 4 5 4 10 0 6 -5 10 -11 10 -5 0 -7
-4 -4 -10z"/>
<path d="M2303 2284 c0 -16 13 -19 21 -5 3 5 0 11 -7 14 -8 3 -14 -1 -14 -9z"/>
<path d="M2423 2195 c1 -13 8 -21 19 -21 10 0 18 4 18 8 0 4 -6 8 -14 8 -8 0
-16 6 -19 13 -3 6 -5 3 -4 -8z"/>
<path d="M1313 2115 c0 -8 4 -12 9 -9 4 3 8 9 8 15 0 5 -4 9 -8 9 -5 0 -9 -7
-9 -15z"/>
<path d="M2156 2121 c-3 -5 2 -15 12 -22 15 -12 16 -12 5 2 -7 9 -10 19 -6 22
3 4 4 7 0 7 -3 0 -8 -4 -11 -9z"/>
<path d="M1625 1971 c-3 -5 0 -13 6 -17 8 -4 9 -3 5 4 -4 7 -3 12 3 12 5 0 11
-5 13 -12 2 -6 13 -12 24 -14 17 -2 16 -1 -5 17 -26 21 -37 24 -46 10z"/>
<path d="M1975 1920 c-3 -5 -1 -10 4 -10 6 0 11 5 11 10 0 6 -2 10 -4 10 -3 0
-8 -4 -11 -10z"/>
<path d="M1980 1889 c0 -5 5 -7 10 -4 6 3 10 8 10 11 0 2 -4 4 -10 4 -5 0 -10
-5 -10 -11z"/>
<path d="M2330 1631 c0 -6 4 -13 10 -16 6 -3 7 1 4 9 -7 18 -14 21 -14 7z"/>
<path d="M626 1602 c-3 -5 1 -9 9 -9 8 0 15 4 15 9 0 4 -4 8 -9 8 -6 0 -12 -4
-15 -8z"/>
<path d="M144 1378 c-3 -4 5 -5 17 -3 30 6 36 14 9 12 -12 -1 -24 -5 -26 -9z"/>
<path d="M175 1360 c-3 -5 -1 -10 4 -10 6 0 11 5 11 10 0 6 -2 10 -4 10 -3 0
-8 -4 -11 -10z"/>
<path d="M150 1353 c0 -6 8 -17 18 -24 16 -13 16 -13 2 6 -8 11 -16 22 -17 24
-2 2 -3 0 -3 -6z"/>
<path d="M194 1329 c-3 -6 -2 -15 3 -20 5 -5 9 -1 9 11 0 23 -2 24 -12 9z"/>
<path d="M155 1313 c11 -10 22 -27 23 -38 3 -16 1 -18 -9 -7 -7 6 -18 12 -23
12 -6 0 -3 -5 6 -11 25 -14 33 -12 34 11 1 11 -10 26 -25 35 -25 16 -26 16 -6
-2z"/>
<path d="M250 1300 c0 -5 5 -10 11 -10 5 0 7 5 4 10 -3 6 -8 10 -11 10 -2 0
-4 -4 -4 -10z"/>
<path d="M210 1275 c0 -8 2 -15 4 -15 2 0 6 7 10 15 3 8 1 15 -4 15 -6 0 -10
-7 -10 -15z"/>
<path d="M316 1282 c-3 -5 1 -9 9 -9 8 0 12 4 9 9 -3 4 -7 8 -9 8 -2 0 -6 -4
-9 -8z"/>
<path d="M2230 1260 c-9 -6 -10 -10 -3 -10 6 0 15 5 18 10 8 12 4 12 -15 0z"/>
<path d="M260 1240 c0 -5 5 -10 11 -10 5 0 7 5 4 10 -3 6 -8 10 -11 10 -2 0
-4 -4 -4 -10z"/>
<path d="M313 1231 c10 -12 9 -14 -6 -8 -11 4 -16 3 -12 -3 9 -15 23 -12 34 8
7 14 6 18 -9 18 -15 0 -17 -3 -7 -15z"/>
<path d="M194 1157 c0 -26 24 -54 36 -41 5 5 -1 21 -14 36 -21 27 -22 27 -22
5z m27 -24 c13 -16 12 -17 -3 -4 -17 13 -22 21 -14 21 2 0 10 -8 17 -17z"/>
<path d="M2175 1140 c-3 -5 -1 -10 4 -10 6 0 11 5 11 10 0 6 -2 10 -4 10 -3 0
-8 -4 -11 -10z"/>
<path d="M2135 1059 c-4 -6 -5 -12 -2 -15 2 -3 7 2 10 11 7 17 1 20 -8 4z"/>
<path d="M2059 978 c-7 -23 -5 -39 4 -45 7 -3 9 -3 5 2 -4 4 0 14 10 22 16 12
16 13 -2 6 -13 -4 -17 -3 -12 5 4 7 5 12 2 12 -3 0 -6 -1 -7 -2z"/>
<path d="M587 903 c6 -16 23 -17 23 -2 0 5 6 7 13 3 6 -4 9 -3 4 1 -13 15 -46
13 -40 -2z"/>
<path d="M679 915 c-1 -3 -2 -8 -3 -12 -1 -5 -5 -15 -10 -23 -7 -12 -6 -13 4
-3 13 12 23 43 14 43 -2 0 -5 -2 -5 -5z"/>
<path d="M516 902 c-2 -4 -1 -14 4 -22 7 -11 9 -9 7 8 -1 24 -3 26 -11 14z"/>
<path d="M615 880 c-3 -6 1 -7 9 -4 18 7 21 14 7 14 -6 0 -13 -4 -16 -10z"/>
<path d="M2007 864 c-8 -8 3 -34 15 -34 7 0 6 5 -1 13 -6 8 -8 17 -4 20 3 4 4
7 1 7 -2 0 -7 -3 -11 -6z"/>
<path d="M1064 745 c-10 -8 -14 -15 -8 -15 6 0 17 7 24 15 16 19 9 19 -16 0z"/>
<path d="M1120 710 c-9 -6 -10 -10 -3 -10 6 0 15 5 18 10 8 12 4 12 -15 0z"/>
<path d="M1910 649 c0 -5 5 -7 10 -4 6 3 10 8 10 11 0 2 -4 4 -10 4 -5 0 -10
-5 -10 -11z"/>
<path d="M1895 619 c-4 -6 -5 -12 -2 -15 2 -3 7 2 10 11 7 17 1 20 -8 4z"/>
<path d="M1660 326 c0 -2 8 -10 18 -17 15 -13 16 -12 3 4 -13 16 -21 21 -21
13z"/>
<path d="M1345 280 c-3 -6 1 -7 9 -4 18 7 21 14 7 14 -6 0 -13 -4 -16 -10z"/>
</g>
</svg>
